Patient4_TMGait_0pt4_02_left_27_EMG.mot
version=1
nRows=36
nColumns=33
inDegrees=no
endheader
time	1LAddLong	2LGlutMax	3LGlutMed	4LIliopsoas	5LSemiMemb	6LBicFemLong	7LRecFem	8LVastMed	9LVastLat	10LGasMed	11LTibAnt	12lTibPost	13LPeroneusLong	14LSol	15LExtDigLong	16LFlexDigLong	17RAddLong	18RGlutMax	19RGlutMed	20RIliopsoas	21RSemiMemb	22RBicFemLong	23RRecFem	24RVastMed	25RVastLat	26RGasMed	27RTibAnt	28RTibPost	29RPeroneusLong	30RSol	31RExtDigLong	32RFlexDigLong
36.69	-0.009918	0.094452	-0.18341	-0.001831	-0.1622	0.047302	-0.28442	-0.010376	0.13565	-0.16754	-0.060272	-0.04364	0.26077	0.22293	-0.15976	-0.011749	0.077209	0.16007	-0.14038	0.062103	-0.058594	-0.094452	0.43869	-0.09201	-0.082703	0.00412	-0.029907	-0.003052	0.015411	-0.061493	-0.001221	-0.021667
36.691	0.00473	0.092163	-0.16251	0.018463	-0.018311	0.068207	-0.33524	-0.008392	0.076904	-0.15976	-0.044861	-0.028839	0.20538	0.11063	-0.17014	-0.010834	0.054474	0.13916	-0.11734	0.11093	-0.046234	-0.083771	0.40649	-0.067444	-0.069122	0.003357	-0.11383	-0.010071	0.035553	-0.08255	-0.002594	-0.023499
36.692	0.023956	0.097504	0.054169	0.002441	0.15335	-0.029907	-0.35797	-0.009918	0.10696	-0.12741	0.023804	-0.02655	-0.23529	0.11337	-0.055847	-0.006561	0.056	0.10712	-0.1004	0.053101	-0.034637	-0.066681	0.35187	-0.084991	-0.078735	-0.009766	-0.15549	-0.00946	0.055084	-0.070038	-0.003052	-0.016022
36.693	0.013123	0.10666	0.1326	-0.006561	0.074158	-0.099945	-0.33096	0.004425	0.14847	-0.080566	0.057678	-0.027771	-0.10239	0.045624	-0.088501	-0.002441	0.055695	0.039063	-0.042114	0.010223	-0.043488	-0.066223	0.36529	-0.075226	-0.082092	0.001373	0.1709	-0.00473	0.12741	-0.1062	-0.000305	-0.020142
36.694	0.004578	0.057068	0.05188	-0.011139	0.010681	0.05127	-0.25253	0.002747	0.19073	-0.033264	-0.027924	-0.019989	-0.21439	0.02533	-0.020142	0.003662	0.035706	0.001678	-0.007019	0.1033	-0.053711	-0.06485	0.38666	-0.16235	-0.071411	-0.00946	0.23666	-0.014954	0.13001	-0.079803	-0.002747	-0.019073
36.695	0.004883	0.026093	0.10605	-0.026093	-0.021667	0.13458	-0.24887	0.001373	0.23743	-0.006409	-0.10895	-0.021973	-0.21301	-0.016937	0.11871	-0.007019	0.053253	-0.041351	-0.030518	0.10986	-0.055847	-0.082703	0.38727	-0.16708	-0.069427	-0.0177	0.023346	-0.007172	0.027008	-0.11124	0.004272	-0.022278
36.696	-0.001526	0.08316	0.11795	0.014648	-0.010223	0.19455	-0.19806	0.013733	0.22522	-0.011292	-0.036621	-0.022278	-0.066528	-0.002899	0.22034	-0.010986	0.053711	-0.059052	0.083771	0.033112	-0.062561	-0.072632	0.3894	-0.14267	-0.050659	-0.014496	0.049438	-0.013123	0.000153	-0.10803	-0.000458	-0.024261
36.697	-0.000153	0.1265	0.20081	0.006714	0.001221	0.34256	-0.15503	0.016479	0.15182	-0.044556	0.027771	-0.018311	-0.21027	-0.059814	0.14236	-0.001221	0.006104	-0.030212	0.11826	-0.090942	-0.045624	-0.056305	0.31662	-0.099792	-0.055695	-0.007324	0.006409	-0.00824	-0.006561	-0.10376	-0.000305	-0.013275
36.698	-0.006866	0.14893	0.14999	-0.007935	0.011139	0.44418	-0.17303	0.011749	0.037689	-0.071564	0.045776	-0.00824	-0.289	-0.04776	0.043335	-0.004272	0.014343	-0.15289	-0.070648	-0.19165	-0.046082	-0.029755	0.31937	-0.09079	-0.042725	-0.003662	-0.069122	-0.005798	-0.001678	-0.045166	-0.005646	-0.011597
36.699	-0.00946	0.12512	0.21408	0.005188	-0.012665	0.43793	-0.20889	0.005341	0.033112	-0.019226	-0.013123	-0.013733	-0.075989	-0.010681	0.014648	-0.003052	-0.007782	-0.16434	-0.11963	-0.15167	-0.032501	0.019226	0.31158	-0.036163	-0.028992	-0.008545	-0.11078	-0.004578	-0.003204	-0.005035	-0.001526	-0.005188
36.7	-0.007935	0.028229	0.17609	0.003967	-0.036011	0.20676	-0.18173	-0.005493	0.14343	0.053864	-0.096283	-0.01358	0.43045	0.018463	0.021667	-0.001984	-0.000916	-0.14679	-0.045624	-0.063171	-0.031281	0.036316	0.29572	0.005951	-0.00351	-0.006409	-0.076752	-0.00824	-0.047455	-0.003357	0.000153	-0.010681
36.701	-0.012207	-0.054779	-0.055542	0.006714	-0.061188	-0.25726	-0.18204	-0.011292	0.17471	0.088501	-0.047607	-0.016327	0.072479	-0.014038	0	-0.005341	-0.015106	-0.15137	-0.11185	0.06546	-0.027313	0.046387	0.2681	0.031433	0.027924	-0.007629	-0.03067	-0.014191	-0.04715	-0.016022	0	-0.008545
36.702	-0.009308	-0.059357	-0.10254	0.010834	-0.1297	-0.23086	-0.19974	-0.006104	0.17777	0.094604	0.054016	-0.017853	0.14038	0.036316	-0.1265	0.001373	-0.016937	-0.11978	-0.12466	0.2655	-0.027008	0.023804	0.30685	0.048828	0.018921	-0.008087	0.046692	-0.009766	0.020905	-0.068207	0.001221	-0.022583
36.703	-0.006866	-0.077362	-0.075684	0.008698	-0.047913	-0.015564	-0.18051	-0.001984	0.067749	0.08667	0.093536	-0.015564	0.15198	0.035706	0.24384	0.012207	0.009766	-0.038605	0.067291	0.41214	-0.022583	0.024567	0.27298	0.06958	0.02533	-0.011597	0.02121	-0.008392	0.04364	-0.070801	0.001221	-0.019531
36.704	-0.001068	-0.038757	-0.11292	0.009003	0.011444	-0.16327	-0.13718	-0.013275	-0.1886	-0.13489	0.12207	-0.015564	0.21057	0.11627	0.039215	0.010834	0.10452	-0.050659	0.014496	0.25971	-0.037537	-0.011902	0.29083	0.028992	0.006256	-0.006714	-0.00412	-0.010986	0.041199	-0.064087	0.000153	-0.014496
36.705	-0.005646	-0.016174	-0.080109	-0.005188	-0.008392	0.005035	-0.12497	-0.011139	-0.19531	-0.18494	0.19012	-0.016937	-0.1004	0.20157	0.35812	0.016022	0.1059	-0.054016	-0.071106	-0.070496	-0.061646	-0.05127	0.26581	-0.070496	0.007935	-0.005646	-0.15564	-0.009155	0.013885	-0.063782	0.00061	-0.014496
36.706	-0.004272	0.034332	-0.051575	-0.000458	-0.03418	0.056915	-0.1355	0.037537	-0.098877	-0.074463	0.050812	-0.017853	0.06134	0.082092	-0.06897	0.000305	0.10834	0.035858	-0.015411	-0.12817	-0.069733	-0.023193	0.33188	-0.1001	-0.003052	-0.000916	-0.19745	-0.003815	0.006561	-0.04715	-0.001678	-0.019226
36.707	0.015869	0.063782	-0.064545	0.007477	0.031891	0.028687	-0.14023	-0.00824	-0.012207	-0.021667	-0.086365	-0.025787	-0.028534	-0.10361	-0.224	-0.007935	0.069733	0.096588	-0.061646	-0.003967	-0.048828	-0.002747	0.31036	-0.11856	-0.01709	-0.002747	-0.057068	-0.00885	-0.024261	0.005188	-0.002899	-0.019226
36.708	0.025635	0.13046	0.007019	0.007324	0.063477	0.21545	-0.14145	-0.004272	-0.037537	-0.018616	0.031738	-0.033417	-0.51971	-0.098572	-0.20233	0.018616	0.076447	0.13519	-0.087738	0.10162	-0.040436	-0.037079	0.29572	-0.15778	-0.01709	0.005188	0.022736	-0.009308	-0.044098	0.050964	-0.004425	-0.014496
36.709	0.025482	0.15945	-0.08667	0.001526	-0.035706	0.34042	-0.11108	-0.004272	-0.12131	-0.055847	0.036469	-0.019836	-0.2742	-0.097046	0.02533	0.024414	0.067596	0.19592	-0.41824	0.18616	-0.047913	-0.081177	0.30151	-0.16129	-0.023651	-0.00061	0.061798	-0.009308	-0.050812	0.04303	-0.002136	-0.016022
36.71	0.016785	0.11932	-0.16419	-0.00351	-0.051727	0.38315	-0.06546	0.005035	-0.078278	-0.07782	-0.01709	-0.015411	0.44418	-0.13473	0.075684	0.031738	0.016785	0.21835	-0.68848	0.10452	-0.075989	-0.099792	0.31387	-0.1651	-0.025635	0.00351	0.19745	-0.006561	-0.016632	0.018921	-0.001678	-0.010529
36.711	0.005188	0.15915	-0.17212	-0.000305	-0.032806	0.30472	-0.063782	0.001831	-0.031738	-0.053101	-0.14374	-0.022583	0.17532	-0.1181	0.12146	0.029144	-0.061035	0.30868	-0.4805	-0.032654	-0.068817	-0.055542	0.31372	-0.1294	-0.028076	-0.002594	0.39566	-0.012054	-0.12558	-0.045319	0.008392	-0.02182
36.712	-0.003967	0.11902	-0.044556	0.011292	0.004883	0.20783	-0.079346	0.004883	0.013275	-0.040436	-0.25726	-0.034943	0.076294	-0.11017	0.26642	0.010681	-0.064392	0.39764	-0.3183	-0.17029	-0.041504	-0.049896	0.28915	-0.032959	-0.0354	-0.002136	0.47424	-0.012054	-0.25253	-0.040131	0	-0.01297
36.713	-0.005493	0.010986	-0.13534	0	-0.003052	0.20767	-0.10574	0.007477	0.041962	-0.010376	-0.074768	-0.018311	0.023956	-0.14694	-0.28671	0.006104	-0.0914	0.34836	-0.14099	-0.18143	-0.015259	-0.027771	0.22446	0.049744	-0.02121	-0.000916	0.60486	-0.009766	-0.27283	-0.075989	-0.002899	-0.008545
36.714	-0.005798	-0.10025	-0.16983	-0.000153	-0.040588	0.05661	-0.10178	0.005646	0.10178	0.023346	-0.001373	-0.021667	-0.046234	-0.1593	-0.42801	0.001526	-0.10895	0.3598	-0.18204	-0.12344	0.024261	0.035706	0.24231	0.070953	-0.011139	0.001831	-0.18677	-0.008392	-0.073395	-0.096741	-0.000763	-0.00946
36.715	0.006409	-0.13733	-0.05722	0.009003	-0.04715	-0.16724	-0.13199	0.006866	0.097198	0.005798	-0.022125	-0.015411	0.012054	-0.12817	-0.40253	0.007782	-0.10269	0.35965	-0.103	-0.18921	0.059204	0.01236	0.21118	0.13901	-0.000916	-0.010071	-0.66925	-0.003815	-0.014496	-0.13458	0	-0.004425
36.716	0.016479	-0.049896	0.15656	0.010223	-0.035858	-0.37888	-0.10346	0.001984	0.061798	0.039368	0.005493	-0.018768	0.095062	-0.103	-0.27741	0.005951	-0.044556	0.36743	0.030823	-0.26459	0.075836	-0.058746	0.23529	0.1062	-0.015259	-0.015411	-0.19806	-0.007019	0.081329	-0.16525	-0.00061	-0.014648
36.717	0.015717	-0.009308	0.29678	-0.00824	0.032654	-0.74356	-0.053711	-0.005341	0.068512	0.14069	-0.028076	-0.011749	0.089569	-0.086517	-0.084534	0.008698	0.052643	0.40161	0.091248	-0.20508	0.06073	-0.044403	0.25589	0.083923	-0.020599	-0.008087	-0.13184	-0.007935	0.3244	-0.21561	-0.002747	-0.005798
36.718	0.026093	-0.0177	0.19745	0.015564	0.084991	-0.75607	0.009613	0.000458	0.026245	0.2327	-0.037689	-0.009613	0.077362	-0.095215	0.14343	0	0.14404	0.40131	-0.049286	-0.046692	0.025482	-0.032349	0.20859	0.012817	-0.017548	-0.003967	-0.077667	-0.008087	0.27969	-0.23102	0.002136	-0.012817
36.719	0.015259	-0.001068	0.076294	0.015717	0.13397	-0.41885	0.018768	-0.005188	-0.04776	0.25055	-0.060425	-0.017548	0.050201	-0.045776	0.086517	0.001526	0.11307	0.37796	-0.21729	0.13504	0.015411	-0.028534	0.18845	0.033264	-0.009003	-0.000763	0.19608	-0.008392	0.079041	-0.21942	-0.001678	-0.007629
36.72	0.016785	-0.003204	-0.05722	-0.000916	0.081329	-0.21133	-0.066681	-0.005798	0.010529	0.16144	-0.040588	-0.015717	0.044708	-0.027618	-0.024261	0.003052	0.069275	0.31021	-0.062408	0.30563	-0.003967	-0.04303	0.21866	0.009308	-0.009308	0.002136	0.36072	-0.006409	0.063477	-0.093842	-0.000916	-0.007782
36.721	0.010071	-0.005798	-0.14114	0.005493	0.023346	-0.11734	-0.12192	0.007782	0.016937	-0.018616	-0.028229	-0.019073	0.064545	-0.051727	-0.072632	0.001984	-0.008392	0.25726	-0.057068	0.32669	-0.02533	-0.052185	0.23987	-0.05127	0.007477	0.010071	-0.63385	-0.002899	0.21027	-0.071411	-0.001221	-0.009155
36.722	0.010223	-0.084839	-0.082703	0.01236	-0.008087	-0.10346	-0.09552	0.018158	-0.000763	-0.12131	-0.012207	-0.005341	0.058594	-0.13245	-0.058899	0.008698	-0.078888	0.26535	-0.058441	0.23758	-0.025024	-0.049896	0.2359	-0.02655	-0.002136	0.004883	-0.97137	-0.002747	0.18097	-0.036163	-0.001068	-0.002747
36.723	0.013733	-0.14236	0.05188	0.006561	-0.052795	0.008392	-0.033722	0.014648	0.017395	-0.071716	-0.010223	-0.006561	0.071106	-0.13641	0.003357	0.010529	-0.12039	0.29251	-0.033264	0.10284	-0.0383	-0.033569	0.25269	-0.046844	-0.019836	0.000458	-0.56091	-0.007782	0.048981	-0.023651	-0.00061	-0.010376
36.724	0.009003	-0.25085	-0.063171	0.015259	-0.067139	0.2356	-0.033264	0.008392	0.02594	-0.20447	-0.051727	0.009613	0.071869	-0.17883	0.062866	0.00351	-0.094757	0.21408	0.058136	0.18433	-0.016785	-0.01358	0.26672	0.000763	-0.011444	0.000763	-0.19318	-0.00885	0.016174	-0.10101	-0.000305	-0.007019
36.725	0.000305	-0.20126	-0.054932	0.018616	-0.068665	0.34943	-0.10391	0.007019	-0.008698	-0.11169	-0.054626	0.002289	0.056152	-0.22308	0.077972	0.005341	-0.036316	0.11047	0.12161	0.20828	-0.021057	-0.017395	0.25543	0.026855	0.000763	-0.002136	0.1294	-0.005798	-0.037537	-0.12161	-0.001526	-0.002899
